{"scene":0,"asset":{"generator":"ImageToStl.com","version":"2.0"},"scenes":[{"name":"Scene","nodes":[0]}],"nodes":[{"name":"Node0","children":[1,2,3,4,5,6,7,8,9,10,11,12,13,14,15,16,17,18,19]},{"name":"Node1","mesh":0},{"name":"Node2","mesh":1},{"name":"Node3","mesh":2},{"name":"Node4","mesh":3},{"name":"Node5","mesh":4},{"name":"Node6","mesh":5},{"name":"Node7","mesh":6},{"name":"Node8","mesh":7},{"name":"Node9","mesh":8},{"name":"Node10","mesh":9},{"name":"Node11","mesh":10},{"name":"Node12","mesh":11},{"name":"Node13","mesh":12},{"name":"Node14","mesh":13},{"name":"Node15","mesh":14},{"name":"Node16","mesh":15},{"name":"Node17","mesh":16},{"name":"Node18","mesh":17},{"name":"Node19","mesh":18}],"materials":[{"name":"Material.007","pbrMetallicRoughness":{"baseColorFactor":[0.83077,0.015996,0.026241,1.0],"metallicFactor":0.5,"roughnessFactor":0.64},"emissiveFactor":[0.0,0.0,0.0],"doubleSided":true},{"name":"Material.008","pbrMetallicRoughness":{"baseColorFactor":[0.83077,0.015996,0.026241,1.0],"metallicFactor":0.5,"roughnessFactor":0.64},"emissiveFactor":[0.0,0.0,0.0],"doubleSided":true},{"name":"Material.002","pbrMetallicRoughness":{"baseColorFactor":[0.83077,0.015996,0.026241,1.0],"metallicFactor":0.5,"roughnessFactor":0.64},"emissiveFactor":[0.0,0.0,0.0],"doubleSided":true},{"name":"Material.003","pbrMetallicRoughness":{"baseColorFactor":[0.83077,0.015996,0.026241,1.0],"metallicFactor":0.5,"roughnessFactor":0.64},"emissiveFactor":[0.0,0.0,0.0],"doubleSided":true},{"name":"Material.004","pbrMetallicRoughness":{"baseColorFactor":[0.83077,0.015996,0.026241,1.0],"metallicFactor":0.5,"roughnessFactor":0.64},"emissiveFactor":[0.0,0.0,0.0],"doubleSided":true},{"name":"Material.001","pbrMetallicRoughness":{"baseColorFactor":[0.83077,0.015996,0.026241,1.0],"metallicFactor":0.5,"roughnessFactor":0.64},"emissiveFactor":[0.0,0.0,0.0],"doubleSided":true},{"name":"Material.005","pbrMetallicRoughness":{"baseColorFactor":[0.83077,0.015996,0.026241,1.0],"metallicFactor":0.5,"roughnessFactor":0.64},"emissiveFactor":[0.0,0.0,0.0],"doubleSided":true},{"name":"Material.009","pbrMetallicRoughness":{"baseColorFactor":[0.83077,0.015996,0.026241,1.0],"metallicFactor":0.5,"roughnessFactor":0.64},"emissiveFactor":[0.0,0.0,0.0],"doubleSided":true},{"name":"Material.010","pbrMetallicRoughness":{"baseColorFactor":[0.83077,0.015996,0.026241,1.0],"metallicFactor":0.5,"roughnessFactor":0.64},"emissiveFactor":[0.0,0.0,0.0],"doubleSided":true},{"name":"Material.006","pbrMetallicRoughness":{"baseColorFactor":[0.83077,0.015996,0.026241,1.0],"metallicFactor":0.5,"roughnessFactor":0.64},"emissiveFactor":[0.0,0.0,0.0],"doubleSided":true},{"name":"SVGMat","pbrMetallicRoughness":{"baseColorFactor":[0.83077,0.015996,0.026241,1.0],"metallicFactor":0.5,"roughnessFactor":0.64},"emissiveFactor":[0.0,0.0,0.0],"doubleSided":true},{"name":"SVGMat.001","pbrMetallicRoughness":{"baseColorFactor":[0.83077,0.015996,0.026241,1.0],"metallicFactor":0.5,"roughnessFactor":0.64},"emissiveFactor":[0.0,0.0,0.0],"doubleSided":true},{"name":"SVGMat.002","pbrMetallicRoughness":{"baseColorFactor":[0.83077,0.015996,0.026241,1.0],"metallicFactor":0.5,"roughnessFactor":0.64},"emissiveFactor":[0.0,0.0,0.0],"doubleSided":true},{"name":"SVGMat.003","pbrMetallicRoughness":{"baseColorFactor":[0.83077,0.015996,0.026241,1.0],"metallicFactor":0.5,"roughnessFactor":0.64},"emissiveFactor":[0.0,0.0,0.0],"doubleSided":true},{"name":"SVGMat.004","pbrMetallicRoughness":{"baseColorFactor":[0.83077,0.015996,0.026241,1.0],"metallicFactor":0.5,"roughnessFactor":0.64},"emissiveFactor":[0.0,0.0,0.0],"doubleSided":true},{"name":"SVGMat.005","pbrMetallicRoughness":{"baseColorFactor":[0.83077,0.015996,0.026241,1.0],"metallicFactor":0.5,"roughnessFactor":0.64},"emissiveFactor":[0.0,0.0,0.0],"doubleSided":true}],"meshes":[{"name":"Mesh0","primitives":[{"indices":3,"material":0,"attributes":{"POSITION":0,"NORMAL":1,"TEXCOORD_0":2}}]},{"name":"Mesh0","primitives":[{"indices":7,"material":1,"attributes":{"POSITION":4,"NORMAL":5,"TEXCOORD_0":6}}]},{"name":"Mesh0","primitives":[{"indices":11,"material":2,"attributes":{"POSITION":8,"NORMAL":9,"TEXCOORD_0":10}}]},{"name":"Mesh0","primitives":[{"indices":15,"material":3,"attributes":{"POSITION":12,"NORMAL":13,"TEXCOORD_0":14}}]},{"name":"Mesh0","primitives":[{"indices":19,"material":4,"attributes":{"POSITION":16,"NORMAL":17,"TEXCOORD_0":18}}]},{"name":"Mesh0","primitives":[{"indices":23,"material":5,"attributes":{"POSITION":20,"NORMAL":21,"TEXCOORD_0":22}}]},{"name":"Mesh0","primitives":[{"indices":27,"material":6,"attributes":{"POSITION":24,"NORMAL":25,"TEXCOORD_0":26}}]},{"name":"Mesh0","primitives":[{"indices":31,"material":7,"attributes":{"POSITION":28,"NORMAL":29,"TEXCOORD_0":30}}]},{"name":"Mesh0","primitives":[{"indices":35,"material":8,"attributes":{"POSITION":32,"NORMAL":33,"TEXCOORD_0":34}}]},{"name":"Mesh0","primitives":[{"indices":39,"material":9,"attributes":{"POSITION":36,"NORMAL":37,"TEXCOORD_0":38}}]},{"name":"Mesh0","primitives":[{"indices":43,"material":10,"attributes":{"POSITION":40,"NORMAL":41,"TEXCOORD_0":42}}]},{"name":"Mesh0","primitives":[{"indices":47,"material":10,"attributes":{"POSITION":44,"NORMAL":45,"TEXCOORD_0":46}}]},{"name":"Mesh0","primitives":[{"indices":51,"material":10,"attributes":{"POSITION":48,"NORMAL":49,"TEXCOORD_0":50}}]},{"name":"Mesh0","primitives":[{"indices":55,"material":10,"attributes":{"POSITION":52,"NORMAL":53,"TEXCOORD_0":54}}]},{"name":"Mesh0","primitives":[{"indices":59,"material":11,"attributes":{"POSITION":56,"NORMAL":57,"TEXCOORD_0":58}}]},{"name":"Mesh0","primitives":[{"indices":63,"material":12,"attributes":{"POSITION":60,"NORMAL":61,"TEXCOORD_0":62}}]},{"name":"Mesh0","primitives":[{"indices":67,"material":13,"attributes":{"POSITION":64,"NORMAL":65,"TEXCOORD_0":66}}]},{"name":"Mesh0","primitives":[{"indices":71,"material":14,"attributes":{"POSITION":68,"NORMAL":69,"TEXCOORD_0":70}}]},{"name":"Mesh0","primitives":[{"indices":75,"material":15,"attributes":{"POSITION":72,"NORMAL":73,"TEXCOORD_0":74}}]}],"accessors":[{"bufferView":0,"componentType":5126,"count":90,"type":"VEC3","min":[0.7081754,1.5735579,4.168205],"max":[1.8672671,2.3427136,4.4245896]},{"bufferView":1,"componentType":5126,"count":90,"type":"VEC3"},{"bufferView":2,"componentType":5126,"count":90,"type":"VEC2"},{"bufferView":3,"componentType":5123,"count":756,"type":"SCALAR"},{"bufferView":4,"componentType":5126,"count":90,"type":"VEC3","min":[1.7470075,1.5698066,1.8540393],"max":[2.6678147,2.3389626,4.3338604]},{"bufferView":5,"componentType":5126,"count":90,"type":"VEC3"},{"bufferView":6,"componentType":5126,"count":90,"type":"VEC2"},{"bufferView":7,"componentType":5123,"count":756,"type":"SCALAR"},{"bufferView":8,"componentType":5126,"count":90,"type":"VEC3","min":[2.619989,1.6370804,3.6025207],"max":[6.178125,2.4062364,3.858906]},{"bufferView":9,"componentType":5126,"count":90,"type":"VEC3"},{"bufferView":10,"componentType":5126,"count":90,"type":"VEC2"},{"bufferView":11,"componentType":5123,"count":756,"type":"SCALAR"},{"bufferView":12,"componentType":5126,"count":90,"type":"VEC3","min":[2.8106685,1.6341715,2.9522474],"max":[6.180106,2.4033275,3.2086327]},{"bufferView":13,"componentType":5126,"count":90,"type":"VEC3"},{"bufferView":14,"componentType":5126,"count":90,"type":"VEC2"},{"bufferView":15,"componentType":5123,"count":756,"type":"SCALAR"},{"bufferView":16,"componentType":5126,"count":90,"type":"VEC3","min":[2.9475734,1.6381519,2.3577821],"max":[6.1822424,2.4073079,2.6141675]},{"bufferView":17,"componentType":5126,"count":90,"type":"VEC3"},{"bufferView":18,"componentType":5126,"count":90,"type":"VEC2"},{"bufferView":19,"componentType":5123,"count":756,"type":"SCALAR"},{"bufferView":20,"componentType":5126,"count":90,"type":"VEC3","min":[2.856123,1.6314449,3.6383948],"max":[3.9705582,2.400601,5.3867464]},{"bufferView":21,"componentType":5126,"count":90,"type":"VEC3"},{"bufferView":22,"componentType":5126,"count":90,"type":"VEC2"},{"bufferView":23,"componentType":5123,"count":756,"type":"SCALAR"},{"bufferView":24,"componentType":5126,"count":46,"type":"VEC3","min":[6.050604,1.6408129,1.9164053],"max":[6.3069897,2.4099689,3.6500092]},{"bufferView":25,"componentType":5126,"count":46,"type":"VEC3"},{"bufferView":26,"componentType":5126,"count":46,"type":"VEC2"},{"bufferView":27,"componentType":5123,"count":396,"type":"SCALAR"},{"bufferView":28,"componentType":5126,"count":90,"type":"VEC3","min":[2.0528684,1.591462,1.0616696],"max":[2.5891504,2.3606179,1.9377201]},{"bufferView":29,"componentType":5126,"count":90,"type":"VEC3"},{"bufferView":30,"componentType":5126,"count":90,"type":"VEC2"},{"bufferView":31,"componentType":5123,"count":756,"type":"SCALAR"},{"bufferView":32,"componentType":5126,"count":90,"type":"VEC3","min":[2.1715882,1.5861979,0.97969484],"max":[6.215283,2.3553536,1.2360802]},{"bufferView":33,"componentType":5126,"count":90,"type":"VEC3"},{"bufferView":34,"componentType":5126,"count":90,"type":"VEC2"},{"bufferView":35,"componentType":5123,"count":756,"type":"SCALAR"},{"bufferView":36,"componentType":5126,"count":90,"type":"VEC3","min":[2.5457754,1.6391768,1.7633094],"max":[6.1847725,2.4083328,2.0196946]},{"bufferView":37,"componentType":5126,"count":90,"type":"VEC3"},{"bufferView":38,"componentType":5126,"count":90,"type":"VEC2"},{"bufferView":39,"componentType":5123,"count":756,"type":"SCALAR"},{"bufferView":40,"componentType":5126,"count":194,"type":"VEC3","min":[5.2096505,1.715414,0.1794363],"max":[6.033865,2.2281847,1.0095526]},{"bufferView":41,"componentType":5126,"count":194,"type":"VEC3"},{"bufferView":42,"componentType":5126,"count":194,"type":"VEC2"},{"bufferView":43,"componentType":5123,"count":1692,"type":"SCALAR"},{"bufferView":44,"componentType":5126,"count":194,"type":"VEC3","min":[2.5644608,1.7483013,4.538974],"max":[3.182979,2.261072,5.1616654]},{"bufferView":45,"componentType":5126,"count":194,"type":"VEC3"},{"bufferView":46,"componentType":5126,"count":194,"type":"VEC2"},{"bufferView":47,"componentType":5123,"count":1692,"type":"SCALAR"},{"bufferView":48,"componentType":5126,"count":194,"type":"VEC3","min":[3.7335036,1.7817655,3.8724341],"max":[4.387492,2.294536,4.531161]},{"bufferView":49,"componentType":5126,"count":194,"type":"VEC3"},{"bufferView":50,"componentType":5126,"count":194,"type":"VEC2"},{"bufferView":51,"componentType":5123,"count":1692,"type":"SCALAR"},{"bufferView":52,"componentType":5126,"count":194,"type":"VEC3","min":[2.3564663,1.6576757,0.1794363],"max":[3.180687,2.1704464,1.0095526]},{"bufferView":53,"componentType":5126,"count":194,"type":"VEC3"},{"bufferView":54,"componentType":5126,"count":194,"type":"VEC2"},{"bufferView":55,"componentType":5123,"count":1692,"type":"SCALAR"},{"bufferView":56,"componentType":5126,"count":290,"type":"VEC3","min":[4.0688405,1.7701223,4.670747],"max":[4.3923364,2.282893,5.918678]},{"bufferView":57,"componentType":5126,"count":290,"type":"VEC3"},{"bufferView":58,"componentType":5126,"count":290,"type":"VEC2"},{"bufferView":59,"componentType":5123,"count":2556,"type":"SCALAR"},{"bufferView":60,"componentType":5126,"count":386,"type":"VEC3","min":[5.7667985,1.7688496,3.915631],"max":[6.0902658,2.2816203,5.9201193]},{"bufferView":61,"componentType":5126,"count":386,"type":"VEC3"},{"bufferView":62,"componentType":5126,"count":386,"type":"VEC2"},{"bufferView":63,"componentType":5123,"count":3420,"type":"SCALAR"},{"bufferView":64,"componentType":5126,"count":294,"type":"VEC3","min":[4.097529,1.7648101,4.053021],"max":[5.1592565,2.2775807,5.8970137]},{"bufferView":65,"componentType":5126,"count":294,"type":"VEC3"},{"bufferView":66,"componentType":5126,"count":294,"type":"VEC2"},{"bufferView":67,"componentType":5123,"count":2592,"type":"SCALAR"},{"bufferView":68,"componentType":5126,"count":386,"type":"VEC3","min":[5.0085397,1.7642527,4.0653043],"max":[6.0416102,2.2770233,5.896723]},{"bufferView":69,"componentType":5126,"count":386,"type":"VEC3"},{"bufferView":70,"componentType":5126,"count":386,"type":"VEC2"},{"bufferView":71,"componentType":5123,"count":3420,"type":"SCALAR"},{"bufferView":72,"componentType":5126,"count":202,"type":"VEC3","min":[4.9085226,1.7635195,4.0260215],"max":[5.2859,2.2762902,4.1614594]},{"bufferView":73,"componentType":5126,"count":202,"type":"VEC3"},{"bufferView":74,"componentType":5126,"count":202,"type":"VEC2"},{"bufferView":75,"componentType":5123,"count":1764,"type":"SCALAR"}],"bufferViews":[{"target":34962,"buffer":0,"byteLength":1080,"byteOffset":0},{"target":34962,"buffer":0,"byteLength":1080,"byteOffset":1080},{"target":34962,"buffer":0,"byteLength":720,"byteOffset":2160},{"target":34963,"buffer":0,"byteLength":1512,"byteOffset":2880},{"target":34962,"buffer":0,"byteLength":1080,"byteOffset":4392},{"target":34962,"buffer":0,"byteLength":1080,"byteOffset":5472},{"target":34962,"buffer":0,"byteLength":720,"byteOffset":6552},{"target":34963,"buffer":0,"byteLength":1512,"byteOffset":7272},{"target":34962,"buffer":0,"byteLength":1080,"byteOffset":8784},{"target":34962,"buffer":0,"byteLength":1080,"byteOffset":9864},{"target":34962,"buffer":0,"byteLength":720,"byteOffset":10944},{"target":34963,"buffer":0,"byteLength":1512,"byteOffset":11664},{"target":34962,"buffer":0,"byteLength":1080,"byteOffset":13176},{"target":34962,"buffer":0,"byteLength":1080,"byteOffset":14256},{"target":34962,"buffer":0,"byteLength":720,"byteOffset":15336},{"target":34963,"buffer":0,"byteLength":1512,"byteOffset":16056},{"target":34962,"buffer":0,"byteLength":1080,"byteOffset":17568},{"target":34962,"buffer":0,"byteLength":1080,"byteOffset":18648},{"target":34962,"buffer":0,"byteLength":720,"byteOffset":19728},{"target":34963,"buffer":0,"byteLength":1512,"byteOffset":20448},{"target":34962,"buffer":0,"byteLength":1080,"byteOffset":21960},{"target":34962,"buffer":0,"byteLength":1080,"byteOffset":23040},{"target":34962,"buffer":0,"byteLength":720,"byteOffset":24120},{"target":34963,"buffer":0,"byteLength":1512,"byteOffset":24840},{"target":34962,"buffer":0,"byteLength":552,"byteOffset":26352},{"target":34962,"buffer":0,"byteLength":552,"byteOffset":26904},{"target":34962,"buffer":0,"byteLength":368,"byteOffset":27456},{"target":34963,"buffer":0,"byteLength":792,"byteOffset":27824},{"target":34962,"buffer":0,"byteLength":1080,"byteOffset":28616},{"target":34962,"buffer":0,"byteLength":1080,"byteOffset":29696},{"target":34962,"buffer":0,"byteLength":720,"byteOffset":30776},{"target":34963,"buffer":0,"byteLength":1512,"byteOffset":31496},{"target":34962,"buffer":0,"byteLength":1080,"byteOffset":33008},{"target":34962,"buffer":0,"byteLength":1080,"byteOffset":34088},{"target":34962,"buffer":0,"byteLength":720,"byteOffset":35168},{"target":34963,"buffer":0,"byteLength":1512,"byteOffset":35888},{"target":34962,"buffer":0,"byteLength":1080,"byteOffset":37400},{"target":34962,"buffer":0,"byteLength":1080,"byteOffset":38480},{"target":34962,"buffer":0,"byteLength":720,"byteOffset":39560},{"target":34963,"buffer":0,"byteLength":1512,"byteOffset":40280},{"target":34962,"buffer":0,"byteLength":2328,"byteOffset":41792},{"target":34962,"buffer":0,"byteLength":2328,"byteOffset":44120},{"target":34962,"buffer":0,"byteLength":1552,"byteOffset":46448},{"target":34963,"buffer":0,"byteLength":3384,"byteOffset":48000},{"target":34962,"buffer":0,"byteLength":2328,"byteOffset":51384},{"target":34962,"buffer":0,"byteLength":2328,"byteOffset":53712},{"target":34962,"buffer":0,"byteLength":1552,"byteOffset":56040},{"target":34963,"buffer":0,"byteLength":3384,"byteOffset":57592},{"target":34962,"buffer":0,"byteLength":2328,"byteOffset":60976},{"target":34962,"buffer":0,"byteLength":2328,"byteOffset":63304},{"target":34962,"buffer":0,"byteLength":1552,"byteOffset":65632},{"target":34963,"buffer":0,"byteLength":3384,"byteOffset":67184},{"target":34962,"buffer":0,"byteLength":2328,"byteOffset":70568},{"target":34962,"buffer":0,"byteLength":2328,"byteOffset":72896},{"target":34962,"buffer":0,"byteLength":1552,"byteOffset":75224},{"target":34963,"buffer":0,"byteLength":3384,"byteOffset":76776},{"target":34962,"buffer":0,"byteLength":3480,"byteOffset":80160},{"target":34962,"buffer":0,"byteLength":3480,"byteOffset":83640},{"target":34962,"buffer":0,"byteLength":2320,"byteOffset":87120},{"target":34963,"buffer":0,"byteLength":5112,"byteOffset":89440},{"target":34962,"buffer":0,"byteLength":4632,"byteOffset":94552},{"target":34962,"buffer":0,"byteLength":4632,"byteOffset":99184},{"target":34962,"buffer":0,"byteLength":3088,"byteOffset":103816},{"target":34963,"buffer":0,"byteLength":6840,"byteOffset":106904},{"target":34962,"buffer":0,"byteLength":3528,"byteOffset":113744},{"target":34962,"buffer":0,"byteLength":3528,"byteOffset":117272},{"target":34962,"buffer":0,"byteLength":2352,"byteOffset":120800},{"target":34963,"buffer":0,"byteLength":5184,"byteOffset":123152},{"target":34962,"buffer":0,"byteLength":4632,"byteOffset":128336},{"target":34962,"buffer":0,"byteLength":4632,"byteOffset":132968},{"target":34962,"buffer":0,"byteLength":3088,"byteOffset":137600},{"target":34963,"buffer":0,"byteLength":6840,"byteOffset":140688},{"target":34962,"buffer":0,"byteLength":2424,"byteOffset":147528},{"target":34962,"buffer":0,"byteLength":2424,"byteOffset":149952},{"target":34962,"buffer":0,"byteLength":1616,"byteOffset":152376},{"target":34963,"buffer":0,"byteLength":3528,"byteOffset":153992}],"buffers":[{"byteLength":157520,"uri":"data:application/octet-stream;base64,"}]}