<svg width="42" height="42" viewBox="0 0 42 42" fill="none" xmlns="http://www.w3.org/2000/svg">
<g clip-path="url(#clip0_97_62)">
<path d="M21 40C31.4934 40 40 31.4934 40 21C40 10.5066 31.4934 2 21 2C10.5066 2 2 10.5066 2 21C2 31.4934 10.5066 40 21 40Z" stroke="#EB222D" stroke-width="4"/>
<path d="M21 24C24.3137 24 27 21.3137 27 18C27 14.6863 24.3137 12 21 12C17.6863 12 15 14.6863 15 18C15 21.3137 17.6863 24 21 24Z" stroke="#EB222D" stroke-width="4"/>
<path d="M9.5 33.5C9.5 33.5 13 29.5 21 29.5C29 29.5 32.5 33.5 32.5 33.5" stroke="#EB222D" stroke-width="4" stroke-linecap="round"/>
</g>
<defs>
<clipPath id="clip0_97_62">
<rect width="42" height="42" fill="white"/>
</clipPath>
</defs>
</svg>
