<svg width="42" height="42" viewBox="0 0 42 42" fill="none" xmlns="http://www.w3.org/2000/svg">
<path d="M16.5 40C18.433 40 20 38.433 20 36.5C20 34.567 18.433 33 16.5 33C14.567 33 13 34.567 13 36.5C13 38.433 14.567 40 16.5 40Z" stroke="#EB222D" stroke-width="4"/>
<path d="M34.5 40C36.433 40 38 38.433 38 36.5C38 34.567 36.433 33 34.5 33C32.567 33 31 34.567 31 36.5C31 38.433 32.567 40 34.5 40Z" stroke="#EB222D" stroke-width="4"/>
<path d="M2 3H7.813L14.593 25.8M14.593 25.8L10.173 33H38M14.593 25.8H38V17.4M38 17.4V9H18.594M38 17.4H21" stroke="#EB222D" stroke-width="4" stroke-linecap="round" stroke-linejoin="round"/>
</svg>
