<svg width="24" height="24" viewBox="0 0 24 24" fill="none" xmlns="http://www.w3.org/2000/svg">
<g clip-path="url(#clip0_97_82)">
<path d="M4.5 11.5V22.5" stroke="#EB222D" stroke-width="3" stroke-linecap="round"/>
<path d="M11 10V20.5C11 21.0304 11.2107 21.5391 11.5858 21.9142C11.9609 22.2893 12.4696 22.5 13 22.5H17.5C18.0304 22.5 18.5391 22.2893 18.9142 21.9142C19.2893 21.5391 19.5 21.0304 19.5 20.5V10" stroke="#EB222D" stroke-width="3"/>
<path d="M6.06401 1.5C5.32952 1.50007 4.61365 1.73121 4.01781 2.16068C3.42196 2.59016 2.97632 3.19621 2.74401 3.893L1.63701 7.21C1.51185 7.58579 1.47777 7.98595 1.53758 8.37749C1.59738 8.76904 1.74937 9.14077 1.98101 9.46206C2.21265 9.78335 2.51732 10.045 2.86991 10.2255C3.2225 10.4059 3.61293 10.5 4.00901 10.5H19.994C20.3901 10.5 20.7805 10.4059 21.1331 10.2255C21.4857 10.045 21.7904 9.78335 22.022 9.46206C22.2537 9.14077 22.4056 8.76904 22.4655 8.37749C22.5253 7.98595 22.4912 7.58579 22.366 7.21L21.26 3.892C21.0275 3.1954 20.5818 2.58957 19.986 2.16028C19.3902 1.73099 18.6744 1.5 17.94 1.5H6.06401Z" stroke="#EB222D" stroke-width="3"/>
</g>
<defs>
<clipPath id="clip0_97_82">
<rect width="24" height="24" fill="white"/>
</clipPath>
</defs>
</svg>
