<svg width="42" height="42"  fill="none" xmlns="http://www.w3.org/2000/svg">
    <path fill-rule="evenodd" clip-rule="evenodd" d="M11 21C11 15.4771 15.4771 11 21 11C26.5229 11 31 15.4771 31 21C31 26.5229 26.5229 31 21 31C15.4771 31 11 26.5229 11 21Z" fill="#BDBDBD"/>
    <path fill-rule="evenodd" clip-rule="evenodd" d="M20.7976 11C20.7504 15.1141 20.4814 17.4165 18.9489 18.9489C17.4165 20.4814 15.1141 20.7504 11 20.7976V21.3947C15.1141 21.4419 17.4165 21.7109 18.9489 23.2434C20.4573 24.7517 20.7416 27.0062 20.7953 31H21.3971C21.4506 27.0062 21.735 24.7517 23.2434 23.2434C24.7517 21.735 27.0062 21.4506 31 21.3971V20.7952C27.0062 20.7416 24.7517 20.4573 23.2434 18.9489C21.7109 17.4165 21.4419 15.1141 21.3947 11H20.7976Z" fill="#4F4F4F"/>
    <circle cx="21" cy="21" r="19.5" stroke="#BDBDBD" stroke-width="3"/>
</svg>
