<svg width="42" height="42" viewBox="0 0 42 42" fill="none" xmlns="http://www.w3.org/2000/svg">
<path d="M20.2189 7.913L20.9999 8.245L21.7809 7.913L26.8729 5.753C32.2189 3.485 38.3239 6.552 39.6969 12.195C40.5419 15.668 39.5969 19.319 37.1589 21.902C34.2909 24.94 30.5429 28.852 27.2319 32.126C25.5749 33.765 24.0439 35.226 22.7979 36.332C22.2825 36.7946 21.7512 37.2392 21.2049 37.665C21.1329 37.721 21.0649 37.772 20.9999 37.819C20.9311 37.7684 20.8627 37.717 20.7949 37.665C20.2487 37.2392 19.7174 36.7946 19.2019 36.332C17.9559 35.226 16.4249 33.765 14.7679 32.126C11.4579 28.853 7.70794 24.94 4.84094 21.902C2.40394 19.319 1.45794 15.668 2.30294 12.195C3.67594 6.552 9.78094 3.485 15.1269 5.753L20.2189 7.913Z" stroke="#EB222D" stroke-width="4"/>
</svg>
