<svg width="82" height="82" viewBox="0 0 82 82" fill="none" xmlns="http://www.w3.org/2000/svg">
<path d="M3 22.4657L19.0186 22.4657" stroke="#EB222D" stroke-width="5" stroke-linecap="round"/>
<path d="M19.0185 22.4657L28.3316 55.7899" stroke="#EB222D" stroke-width="5" stroke-linecap="round"/>
<path d="M29.4493 31.4521L78.6225 31.4521" stroke="#EB222D" stroke-width="5" stroke-linecap="round"/>
<path d="M32.0569 39.3151L78.6224 39.3151" stroke="#EB222D" stroke-width="5" stroke-linecap="round"/>
<path d="M33.9195 47.5525L78.6224 47.5525" stroke="#EB222D" stroke-width="5" stroke-linecap="round"/>
<path d="M34.2921 30.7032L46.5854 8.23743" stroke="#EB222D" stroke-width="5" stroke-linecap="round"/>
<path d="M78.6224 55.4155V31.4521" stroke="#EB222D" stroke-width="5" stroke-linecap="round"/>
<path d="M27.2127 55.79L23.1163 66.6484" stroke="#EB222D" stroke-width="5" stroke-linecap="round"/>
<path d="M23.1164 66.6484H79" stroke="#EB222D" stroke-width="5" stroke-linecap="round"/>
<path d="M28.3317 55.79H78.6225" stroke="#EB222D" stroke-width="5" stroke-linecap="round"/>
<path d="M70.7992 68.0251C73.9327 68.0251 76.4944 70.5817 76.4945 73.7624C76.4945 76.9431 73.9327 79.4997 70.7992 79.4997C67.6657 79.4996 65.1039 76.9431 65.1039 73.7624C65.104 70.5818 67.6658 68.0252 70.7992 68.0251Z" fill="white" stroke="#EB222D" stroke-width="5"/>
<path d="M32.9885 10.4863C35.3417 10.4865 37.2619 12.406 37.2619 14.79C37.2619 17.1739 35.3416 19.0936 32.9885 19.0937C30.6352 19.0937 28.7141 17.174 28.7141 14.79C28.7141 12.4059 30.6351 10.4863 32.9885 10.4863Z" fill="white" stroke="#EB222D" stroke-width="3"/>
<path d="M49.3796 19.2237C51.8657 19.2239 53.8982 21.2527 53.8982 23.7765C53.8981 26.3002 51.8657 28.329 49.3796 28.3292C46.8934 28.3292 44.8602 26.3003 44.8601 23.7765C44.8601 21.2526 46.8934 19.2237 49.3796 19.2237Z" fill="white" stroke="#EB222D" stroke-width="4"/>
<path d="M31.3117 68.0251C34.4452 68.0251 37.0069 70.5817 37.007 73.7624C37.007 76.9431 34.4452 79.4997 31.3117 79.4997C28.1782 79.4996 25.6164 76.9431 25.6164 73.7624C25.6164 70.5818 28.1783 68.0252 31.3117 68.0251Z" fill="white" stroke="#EB222D" stroke-width="5"/>
<path d="M53.0362 0C53.5883 0.000221837 54.0362 0.447852 54.0362 1V17.25C52.8196 16.3323 51.2652 15.7681 49.5655 15.7295V1C49.5655 0.447715 50.0132 0 50.5655 0H53.0362Z" fill="#EB222D"/>
<path d="M73.0346 1C73.0346 0.447715 73.4823 0 74.0346 0H76.5049C77.0572 0 77.5049 0.447715 77.5049 1V26.7078C77.5049 27.26 77.0572 27.7078 76.5049 27.7078H74.0346C73.4823 27.7078 73.0346 27.26 73.0346 26.7078V1Z" fill="#EB222D"/>
<path d="M49.9381 1.82751L53.1091 0.408455C53.6132 0.182863 54.2032 0.409337 54.4269 0.914299L64.5252 23.7114C64.7489 24.2164 64.5215 24.8086 64.0174 25.0342L62.6719 25.6363C61.6637 26.0875 60.4837 25.6346 60.0364 24.6246L49.9381 1.82751Z" fill="#EB222D"/>
<path d="M72.6577 0.914312C72.8814 0.409351 73.4713 0.182878 73.9755 0.40847L76.2337 1.41906C76.7378 1.64465 76.9652 2.23688 76.7415 2.74184L67.1252 24.4509C66.6778 25.4608 65.4978 25.9137 64.4896 25.4625L63.1441 24.8604C62.64 24.6348 62.4127 24.0426 62.6364 23.5376L72.6577 0.914312Z" fill="#EB222D"/>
<rect x="61.1137" y="24.3379" width="5.21534" height="1.87215" rx="0.936073" fill="#EB222D"/>
</svg>
