<svg width="43" height="43" viewBox="0 0 43 43" fill="none" xmlns="http://www.w3.org/2000/svg">
<path d="M21.5 41C32.2696 41 41 32.2696 41 21.5C41 10.7304 32.2696 2 21.5 2C10.7304 2 2 10.7304 2 21.5C2 32.2696 10.7304 41 21.5 41Z" stroke="#BDBDBD" stroke-width="3"/>
<path d="M27.6359 15.1148C27.6359 15.1148 29.116 14.5521 28.9927 15.9186C28.9516 16.4814 28.5816 18.4509 28.2938 20.5812L27.307 26.8916C27.307 26.8916 27.2248 27.8161 26.4847 27.9769C25.7447 28.1376 24.6346 27.4141 24.429 27.2533C24.2645 27.1328 21.3455 25.324 20.3176 24.4398C20.0298 24.1986 19.7008 23.7163 20.3587 23.1536L24.6757 19.1342C25.1691 18.6518 25.6624 17.5264 23.6067 18.893L17.8507 22.7114C17.8507 22.7114 17.1929 23.1134 15.9595 22.7516L13.287 21.9478C13.287 21.9478 12.3003 21.3449 13.986 20.7419C18.0974 18.8528 23.1545 16.9235 27.6359 15.1148Z" fill="#BDBDBD"/>
</svg>
