<svg width="42" height="42" viewBox="0 0 42 42" fill="none" xmlns="http://www.w3.org/2000/svg">
<g clip-path="url(#clip0_97_56)">
<path d="M21 25C24.866 25 28 21.866 28 18C28 14.134 24.866 11 21 11C17.134 11 14 14.134 14 18C14 21.866 17.134 25 21 25Z" stroke="#EB222D" stroke-width="4"/>
<path d="M37 18C37 24.246 33.626 29.772 29.689 33.836C27.736 35.851 25.702 37.445 24.006 38.522C23.156 39.062 22.418 39.455 21.839 39.706C21.341 39.922 21.079 39.979 21.011 39.995C21.0073 39.9956 21.0037 39.9963 21 39.997C20.9963 39.9963 20.9927 39.9956 20.989 39.995C20.92 39.98 20.659 39.922 20.161 39.705C19.581 39.455 18.843 39.061 17.994 38.522C16.298 37.445 14.264 35.852 12.311 33.836C8.374 29.772 5 24.246 5 18C5 9.163 12.163 2 21 2C29.837 2 37 9.163 37 18Z" stroke="#EB222D" stroke-width="4"/>
</g>
<defs>
<clipPath id="clip0_97_56">
<rect width="42" height="42" fill="white"/>
</clipPath>
</defs>
</svg>
