<svg width="15" height="18" viewBox="0 0 15 18" fill="none" xmlns="http://www.w3.org/2000/svg">
<g clip-path="url(#clip0_22_427)">
<path d="M0.478262 18C0.0652189 17.8274 -0.0326072 17.5147 1.48499e-06 17.0833C0.195654 15.0665 0.369567 13.0389 0.554349 11.0114C0.739132 9.05931 0.913045 7.10725 1.08696 5.1444C1.13044 4.68064 1.36957 4.45416 1.83696 4.45416C2.55435 4.45416 3.27174 4.45416 4.02174 4.45416C4.02174 4.36788 4.02174 4.29239 4.02174 4.20611C4.03261 3.63451 4 3.07369 4.15218 2.51288C4.6087 0.84122 6.33696 -0.258839 8.05435 0.0323529C9.70652 0.323545 10.9022 1.67166 10.9565 3.34332C10.9674 3.71 10.9565 4.06591 10.9565 4.45416C11.0435 4.45416 11.1087 4.45416 11.1848 4.45416C11.837 4.45416 12.5 4.45416 13.1522 4.45416C13.5978 4.45416 13.8478 4.65908 13.8913 5.10126C13.9674 5.92091 14.0435 6.74056 14.1196 7.571C14.2283 8.83283 14.3478 10.0947 14.4674 11.3457C14.5652 12.4566 14.663 13.5566 14.7609 14.6675C14.837 15.4763 14.8913 16.2852 14.9891 17.0941C15.0435 17.5255 14.913 17.8059 14.5109 17.9784C9.83696 18 5.16304 18 0.478262 18ZM4.03261 5.75914C3.51087 5.75914 3.02174 5.76992 2.53261 5.75914C2.36957 5.75914 2.33696 5.81306 2.32609 5.95326C2.25 6.79449 2.17391 7.64649 2.09783 8.48771C1.98913 9.73876 1.86957 10.9898 1.76087 12.2516C1.66305 13.3625 1.55435 14.4841 1.45652 15.595C1.42391 15.9617 1.39131 16.3283 1.3587 16.695C5.46739 16.695 9.54348 16.695 13.6413 16.695C13.5978 16.2528 13.5652 15.8322 13.5217 15.4008C13.4239 14.3008 13.3261 13.2007 13.2283 12.0899C13.1196 10.8496 13 9.60935 12.8913 8.36908C12.8152 7.54943 12.7391 6.72978 12.6739 5.89934C12.663 5.7807 12.6196 5.74835 12.5109 5.75914C12.3261 5.76992 12.1413 5.75914 11.9565 5.75914C11.6304 5.75914 11.3152 5.75914 10.9783 5.75914C10.9783 5.83463 10.9783 5.89934 10.9783 5.95326C10.9783 6.26603 10.9783 6.58957 10.9783 6.90234C10.9674 7.27981 10.6848 7.56021 10.3261 7.56021C9.97826 7.56021 9.69565 7.29059 9.67391 6.9239C9.66304 6.67585 9.67391 6.4278 9.67391 6.19053C9.67391 6.05033 9.67391 5.91012 9.67391 5.7807C8.21739 5.7807 6.78261 5.7807 5.34783 5.7807C5.34783 6.15818 5.34783 6.51408 5.34783 6.88076C5.34783 7.20431 5.17391 7.44158 4.90217 7.52786C4.45652 7.65728 4.04348 7.3553 4.03261 6.90234C4.02174 6.52486 4.03261 6.14739 4.03261 5.75914ZM9.66304 4.45416C9.66304 4.08748 9.67391 3.73157 9.66304 3.37567C9.64131 2.44817 8.97826 1.60695 8.08696 1.36968C7.14131 1.12163 6.18478 1.4991 5.66304 2.29718C5.22826 2.97663 5.3587 3.71 5.33696 4.45416C6.78261 4.45416 8.20652 4.45416 9.66304 4.45416Z" fill="#EB222D"/>
</g>
<defs>
<clipPath id="clip0_22_427">
<rect width="15" height="18" fill="white"/>
</clipPath>
</defs>
</svg>
