<svg width="22" height="15" viewBox="0 0 22 15" fill="none" xmlns="http://www.w3.org/2000/svg">
<path d="M0.00573813 5.68019C0.160668 5.3046 0.441836 5.16591 0.837767 5.18325C1.22796 5.20636 1.62389 5.18903 2.02556 5.18903C2.02556 4.74987 2.02556 4.33382 2.02556 3.88888C1.87637 3.88888 1.73292 3.89466 1.5952 3.88888C1.19353 3.87732 0.906625 3.59996 0.912363 3.23592C0.912363 2.8661 1.19927 2.60029 1.60094 2.59451C1.73292 2.59451 1.87063 2.59451 2.02556 2.59451C2.0313 2.50206 2.03704 2.42694 2.03704 2.34604C2.03704 1.80287 2.03704 1.26548 2.03704 0.722303C2.04278 0.260029 2.28951 0 2.7543 0C6.6964 0 10.6442 0 14.5863 0C15.0454 0 15.2979 0.260029 15.2979 0.728082C15.2979 1.62374 15.2979 2.51362 15.2979 3.43816C15.3839 3.43816 15.4585 3.43816 15.5331 3.43816C16.2045 3.43816 16.8816 3.44394 17.5529 3.43816C17.8054 3.43816 18.0063 3.51906 18.1841 3.70397C19.3662 4.94056 20.5483 6.17136 21.736 7.40217C21.9197 7.58708 22 7.7951 22 8.06091C21.9943 9.49396 22 10.927 21.9943 12.3658C21.9943 12.8454 21.7418 13.0997 21.2655 13.1055C21.0417 13.1113 20.8237 13.117 20.5999 13.0997C20.4335 13.0881 20.3704 13.1517 20.3073 13.3019C19.6588 14.9661 17.5989 15.5324 16.2045 14.4345C15.82 14.1283 15.5274 13.7527 15.361 13.2846C15.3151 13.1517 15.252 13.0997 15.1028 13.0997C13.1748 13.1055 11.2525 13.1055 9.32446 13.0997C9.19249 13.0997 9.12937 13.1401 9.07773 13.273C8.65884 14.3421 7.70057 15.0008 6.58738 14.995C5.47418 14.9892 4.51591 14.3247 4.1085 13.2557C4.05686 13.1228 3.99374 13.0824 3.86176 13.0881C3.49452 13.0939 3.13302 13.0939 2.76578 13.0881C2.27804 13.0824 2.0313 12.8339 2.0313 12.3369C2.0313 10.4821 2.0313 8.63297 2.0313 6.7781C2.0313 6.69142 2.0313 6.60474 2.0313 6.4834C1.82473 6.4834 1.63537 6.4834 1.44601 6.4834C1.23944 6.4834 1.03286 6.47184 0.826291 6.4834C0.43036 6.50651 0.149191 6.36205 0 5.97489C0.00573813 5.88244 0.00573813 5.78421 0.00573813 5.68019ZM3.33959 2.59451C3.44288 2.59451 3.52321 2.59451 3.59781 2.59451C4.72822 2.59451 5.85863 2.59451 6.98905 2.59451C7.06938 2.59451 7.14971 2.59451 7.22431 2.60029C7.53417 2.63496 7.76369 2.87766 7.78665 3.18391C7.8096 3.50751 7.6145 3.79065 7.31038 3.85999C7.20709 3.8831 7.09807 3.88888 6.98905 3.88888C5.85863 3.88888 4.72822 3.88888 3.59781 3.88888C3.51174 3.88888 3.4314 3.88888 3.33385 3.88888C3.33385 4.32804 3.33385 4.74409 3.33385 5.18903C3.42566 5.18903 3.50026 5.18903 3.57486 5.18903C4.39541 5.18903 5.2217 5.18903 6.04225 5.18903C6.27752 5.18903 6.51278 5.18325 6.74804 5.20058C7.04643 5.2237 7.27595 5.46639 7.30464 5.76109C7.33907 6.07313 7.15545 6.36205 6.86854 6.44872C6.75952 6.47762 6.64476 6.4834 6.52999 6.4834C5.54877 6.4834 4.56755 6.4834 3.58633 6.4834C3.506 6.4834 3.41993 6.4834 3.33385 6.4834C3.33385 8.26893 3.33385 10.0198 3.33385 11.7822C3.55764 11.7822 3.76421 11.7822 3.96505 11.7822C4.53886 10.2972 5.38811 9.6153 6.63902 9.63842C7.87846 9.66153 8.72196 10.3607 9.21544 11.7822C10.7992 11.7822 12.3829 11.7822 13.9781 11.7822C13.9781 8.27471 13.9781 4.79032 13.9781 1.30592C10.4204 1.30592 6.88002 1.30592 3.32812 1.30592C3.33959 1.73353 3.33959 2.14957 3.33959 2.59451ZM15.2864 11.4297C15.8086 10.2914 16.6463 9.6153 17.9087 9.65575C19.2859 9.6962 20.1007 10.4994 20.4737 11.8053C20.554 11.7995 20.6171 11.7995 20.686 11.7938C20.686 10.719 20.686 9.65575 20.686 8.60408C18.8727 8.60408 17.0824 8.60408 15.2806 8.60408C15.2864 9.55752 15.2864 10.4936 15.2864 11.4297ZM19.7908 7.27504C19.7679 7.23459 19.7621 7.21726 19.7507 7.2057C18.9932 6.41405 18.23 5.61663 17.4669 4.83076C17.4095 4.77298 17.3062 4.74409 17.2201 4.74409C16.675 4.73831 16.1299 4.73831 15.5905 4.73831C15.493 4.73831 15.3954 4.73831 15.2921 4.73831C15.2921 5.60507 15.2921 6.43139 15.2921 7.27504C16.7955 7.27504 18.2817 7.27504 19.7908 7.27504ZM6.61033 13.6949C7.36776 13.6949 7.97027 13.0824 7.976 12.3254C7.98174 11.5569 7.36202 10.9386 6.59885 10.9386C5.83568 10.9443 5.22744 11.5569 5.23891 12.3312C5.24465 13.0939 5.84716 13.7007 6.61033 13.6949ZM19.2113 12.3138C19.2113 11.5511 18.6088 10.9443 17.8513 10.9386C17.0882 10.9328 16.4684 11.5511 16.4684 12.3196C16.4684 13.0766 17.0767 13.6891 17.8341 13.6949C18.603 13.7007 19.217 13.0881 19.2113 12.3138Z" fill="#EB222D"/>
</svg>
